<?xml version="1.0" encoding="UTF-8" standalone="no"?>
<!-- Created with Inkscape (http://www.inkscape.org/) -->

<svg
   xmlns:dc="http://purl.org/dc/elements/1.1/"
   xmlns:cc="http://creativecommons.org/ns#"
   xmlns:rdf="http://www.w3.org/1999/02/22-rdf-syntax-ns#"
   xmlns:svg="http://www.w3.org/2000/svg"
   xmlns="http://www.w3.org/2000/svg"
   xmlns:sodipodi="http://sodipodi.sourceforge.net/DTD/sodipodi-0.dtd"
   xmlns:inkscape="http://www.inkscape.org/namespaces/inkscape"
   width="45cm"
   height="30cm"
   viewBox="0 0 450 299.99999"
   version="1.1"
   id="svg8"
   inkscape:version="0.92.4 (5da689c313, 2019-01-14)"
   sodipodi:docname="Flagge KST V4.svg">
  <defs
     id="defs2" />
  <sodipodi:namedview
     id="base"
     pagecolor="#ffffff"
     bordercolor="#666666"
     borderopacity="1.0"
     inkscape:pageopacity="0.0"
     inkscape:pageshadow="2"
     inkscape:zoom="0.69673611"
     inkscape:cx="850.3937"
     inkscape:cy="566.92913"
     inkscape:document-units="mm"
     inkscape:current-layer="layer2"
     showgrid="false"
     units="cm"
     inkscape:window-width="1920"
     inkscape:window-height="1017"
     inkscape:window-x="-8"
     inkscape:window-y="-8"
     inkscape:window-maximized="1" />
  <metadata
     id="metadata5">
    <rdf:RDF>
      <cc:Work
         rdf:about="">
        <dc:format>image/svg+xml</dc:format>
        <dc:type
           rdf:resource="http://purl.org/dc/dcmitype/StillImage" />
        <dc:title />
      </cc:Work>
    </rdf:RDF>
  </metadata>
  <g
     inkscape:label="Hintergrund"
     inkscape:groupmode="layer"
     id="layer1"
     transform="translate(0,2.9999847)"
     sodipodi:insensitive="true">
    <rect
       x="0"
       y="-2.9999847"
       width="450"
       height="300"
       style="clip-rule:evenodd;fill:#2d572c;fill-rule:evenodd;stroke-width:0.10606602;stroke-linejoin:round;stroke-miterlimit:2"
       id="rect3773" />
    <path
       inkscape:connector-curvature="0"
       d="M 0,-2.9999847 450,297.00002 V -2.9999847 L 0,297.00002 Z"
       style="clip-rule:evenodd;fill:#9b2321;fill-rule:evenodd;stroke-width:0.10606602;stroke-linejoin:round;stroke-miterlimit:2"
       id="path3775" />
  </g>
  <g
     inkscape:groupmode="layer"
     id="layer2"
     inkscape:label="Wappen"
     sodipodi:insensitive="true">
    <path
       id="path3979"
       d="m 185.45975,108.46401 v 51.97202 a 39.54025,37.122861 0 0 0 79.08049,0 v -51.97202 z"
       inkscape:connector-curvature="0"
       style="fill:#ffffff;stroke:#000000;stroke-width:0.91959608;stroke-miterlimit:4;stroke-dasharray:none;stroke-opacity:1" />
  </g>
  <g
     inkscape:groupmode="layer"
     id="layer3"
     inkscape:label="Schiff"
     sodipodi:insensitive="true">
    <g
       style="clip-rule:evenodd;fill-rule:evenodd;stroke-linecap:round;stroke-linejoin:round;stroke-miterlimit:1.5"
       id="g1102"
       transform="matrix(0.26458333,0,0,0.26458333,-417.90084,-301.55854)">
      <g
         id="g1055"
         transform="matrix(0.38575327,0,0,0.34095288,2871.8949,1317.0995)">
        <g
           style="clip-rule:evenodd;fill-rule:evenodd;stroke-linecap:round;stroke-linejoin:round;stroke-miterlimit:1.5"
           id="g1407"
           transform="matrix(2.5923306,0,0,2.9329566,-7385.3701,-3867.2052)" />
      </g>
    </g>
    <g
       id="g4463"
       transform="matrix(0.99969885,0,0,1.0742035,0.06770269,-8.8769849)">
      <path
         style="clip-rule:evenodd;fill-rule:evenodd;stroke:#000000;stroke-width:0.67560881;stroke-linecap:round;stroke-linejoin:round;stroke-miterlimit:1.5;stroke-dasharray:none"
         d="m 223.92157,126.95609 0.30044,34.43935 -1.16465,0.0333 -0.35971,-32.38791 c 0,0 -0.32789,0.15187 -0.67198,0.15647 -0.32552,0.004 -0.7849,-0.2106 -0.7849,-0.2106 0,0 -0.10764,-1.45227 0.0244,-1.75714 0.10145,-0.23437 0.50766,-0.0708 0.7678,-0.0721 0.26014,-0.001 0.43341,-0.0782 0.64331,-0.0927 0.31298,-0.0216 1.24526,-0.10874 1.24526,-0.10874 z"
         id="Mast-6"
         inkscape:connector-curvature="0" />
      <path
         id="path996"
         style="clip-rule:evenodd;fill-rule:evenodd;stroke:#000000;stroke-width:0.676;stroke-linecap:round;stroke-linejoin:round;stroke-miterlimit:1.5;stroke-dasharray:none"
         d="m 209.67365,134.52885 c 4.87664,-1.37868 24.32536,-6.48515 29.19672,-7.67545 0.17457,-0.0426 0.20567,0.48924 0.0317,0.53408 -4.92355,1.2705 -24.38563,6.3849 -29.29175,7.73829 -0.19427,0.0536 -0.1306,-0.54207 0.0634,-0.59692 z"
         inkscape:connector-curvature="0" />
      <path
         inkscape:connector-curvature="0"
         d="m 247.70964,158.51709 c 1.28296,-0.0296 1.7232,0.0868 1.77205,0.28669 0.1674,0.68498 0.174,1.96348 0.47778,2.42694 0.25274,0.38575 1.29778,-0.10381 1.3446,0.35392 0.0603,0.58909 0.13246,2.88734 0.13246,2.88734 l -2.42154,-0.0668 c 0,0 -0.0125,-1.67418 -0.0864,-2.50077 -0.0737,-0.8249 -0.09,-1.99854 -0.3567,-2.45901 -0.21275,-0.36725 -0.81706,-0.31054 -1.24355,-0.30367 -0.44293,0.007 -1.38269,-0.004 -1.40419,-0.32435 -0.0215,-0.31999 1.43123,-0.29211 1.78549,-0.30027 z"
         style="clip-rule:evenodd;fill-rule:evenodd;stroke:#000000;stroke-width:0.67558342px;stroke-linecap:round;stroke-linejoin:round;stroke-miterlimit:1.5"
         id="path993" />
      <path
         inkscape:connector-curvature="0"
         d="m 213.22931,134.14027 c -1.5461,2.05719 -3.62512,7.05914 -3.61893,10.62523 0.007,4.02962 1.07216,9.33694 5.24549,11.39452 1.62281,-3.20295 14.48144,-4.14474 21.26123,-3.16086 -1.98846,-3.22735 -2.98457,-8.37382 -3.03733,-12.50968 -0.0527,-4.13594 -0.23963,-10.03291 2.72068,-12.30563 -5.29043,1.09552 -19.92364,5.12579 -22.57114,5.95642 z"
         style="clip-rule:evenodd;fill:#0a0a0a;fill-opacity:1;fill-rule:evenodd;stroke:#000000;stroke-width:0.49824733;stroke-linecap:round;stroke-linejoin:round;stroke-miterlimit:1.5;stroke-dasharray:none"
         id="path998" />
      <path
         sodipodi:nodetypes="ccccccc"
         inkscape:connector-curvature="0"
         d="m 217.51127,133.16521 c -1.19633,1.98874 -4.36793,6.34178 -4.33056,10.83577 0.0373,4.4757 2.46796,7.94144 4.58296,9.96233 1.32285,-0.44885 2.63075,-0.76315 3.937,-0.94442 -2.11501,-2.02088 -3.92291,-4.98245 -3.9418,-9.45824 -0.0188,-4.45144 1.81317,-7.86114 3.83731,-11.51968 z"
         style="clip-rule:evenodd;fill:#9b2321;fill-opacity:1;fill-rule:evenodd;stroke:none;stroke-width:0.66713566;stroke-linecap:round;stroke-linejoin:round;stroke-miterlimit:1.5;stroke-dasharray:none"
         id="path1000" />
      <path
         sodipodi:nodetypes="ccccccc"
         inkscape:connector-curvature="0"
         d="m 226.41694,152.49906 c -1.95876,-2.28562 -3.32351,-5.53679 -3.32416,-10.01108 -8.2e-4,-4.45134 1.74312,-8.77573 4.34926,-12.00557 l 3.04827,-0.783 c -2.29046,3.83519 -3.46145,8.51341 -3.57178,12.54355 -0.11032,4.03009 1.79155,7.34355 3.5154,10.13284 -1.33442,-0.0166 -2.65922,0.0502 -4.01699,0.12326 z"
         style="clip-rule:evenodd;fill:#9b2321;fill-opacity:1;fill-rule:evenodd;stroke:none;stroke-width:0.6652711;stroke-linecap:round;stroke-linejoin:round;stroke-miterlimit:1.5;stroke-dasharray:none"
         id="path1002" />
      <g
         transform="matrix(0.08299628,0,0,0.07832882,58.904268,36.924465)"
         style="clip-rule:evenodd;fill-rule:evenodd;stroke:#000000;stroke-width:6.14343119;stroke-linecap:round;stroke-linejoin:round;stroke-miterlimit:1.5;stroke-dasharray:none;stroke-opacity:1"
         id="g1010">
        <path
           id="path1006"
           style="fill:none;stroke:#000000;stroke-width:6.14343119;stroke-miterlimit:1.5;stroke-dasharray:none;stroke-opacity:1"
           d="m 2135.19,1481.89 c 25.69,41.335 59.797,72.494 111.171,90.267"
           inkscape:connector-curvature="0" />
        <path
           id="path1008"
           style="fill:none;stroke:#000000;stroke-width:6.14343119;stroke-miterlimit:1.5;stroke-dasharray:none;stroke-opacity:1"
           d="m 1877.06,1520.02 c 12.134,15.717 39.996,44.341 72.464,60.42"
           inkscape:connector-curvature="0" />
      </g>
      <path
         id="path1014"
         style="clip-rule:evenodd;fill:#200a00;fill-rule:evenodd;stroke:#000000;stroke-width:0.49824733;stroke-linecap:round;stroke-linejoin:round;stroke-miterlimit:1.5;stroke-dasharray:none;stroke-opacity:1"
         d="m 204.10523,163.81253 c -2.03919,-2.67916 -4.45488,-6.72849 -5.181,-9.42904 -0.11057,-0.41096 -0.46784,-0.71269 -0.80306,-0.73555 -0.77228,-0.0528 -2.1233,-0.0481 -2.56069,-0.0832 0.20681,-0.43035 0.52028,-1.157 1.00441,-1.53161 0.52053,-0.40279 1.39955,-0.623 2.11899,-0.88507 0.78213,-0.28493 2.16166,-1.08915 2.57373,-0.82441 0.97087,0.62382 0.80973,2.48001 1.9454,4.50399 1.13566,2.0239 3.45495,4.00878 7.21555,5.06141 5.50703,1.54153 26.3053,0.58181 34.34379,0.16052 2.48375,-0.13023 3.63888,-0.88177 4.69125,-1.43547 0.7363,-0.38736 1.43619,-1.1259 1.62313,-1.88664 0.37381,-1.5219 -1.35175,-2.23298 -0.54731,-2.689 0.54585,-0.30941 1.08372,0.93475 1.57827,1.7212 0.66261,1.05367 0.23816,4.42014 -0.17757,5.51566 -0.29956,0.78943 -1.7399,0.51475 -2.31693,1.05764 -0.91534,0.86124 -2.27988,1.5883 -2.81229,1.98779"
         inkscape:connector-curvature="0" />
      <path
         id="path1016"
         style="clip-rule:evenodd;fill:#1dbaff;fill-rule:evenodd;stroke:#000000;stroke-width:0.49824733;stroke-linecap:round;stroke-linejoin:round;stroke-miterlimit:1.5;stroke-dasharray:none;stroke-opacity:1"
         d="m 244.44681,164.0411 c 2.282,0.10218 5.09209,0.45156 6.7763,0.0704 1.49367,-0.33791 3.34186,-0.49257 4.76234,-0.2262 1.30136,0.24409 3.89967,1.67958 3.76084,1.8247 -0.1389,0.1452 -3.0498,-0.92538 -4.59387,-0.95391 -1.80975,-0.0332 -4.47345,0.67257 -6.26456,0.7538 -1.49441,0.0679 -2.98702,-0.27882 -4.48208,-0.26612 -1.64406,0.0138 -3.58653,0.36668 -5.38204,0.34902 -2.03496,-0.0199 -4.91956,-0.36546 -6.82807,-0.46886 -1.54049,-0.0834 -3.08204,-0.10121 -4.62303,-0.15147 -1.64332,-0.0537 -3.50527,-0.23484 -5.23669,-0.17064 -2.76345,0.10288 -4.138,0.38199 -7.02194,0.0891 -2.19789,-0.22338 -4.30776,-0.54315 -6.46666,-0.63222 -2.18746,-0.0901 -5.02418,-0.36948 -6.6579,0.0911 -1.27212,0.35867 -2.2206,1.07301 -3.26833,1.09265 -1.0264,0.0191 -1.9923,-0.91596 -3.01805,-0.97497 -1.4449,-0.0832 -5.83734,0.56302 -5.65161,0.47573 2.59351,-1.21991 5.51612,-2.05409 7.04482,-1.34361 1.46248,0.67978 2.38727,0.53181 3.36905,0.0331 2.68893,-1.36619 8.00095,-0.62201 10.57402,-0.25755 1.76709,0.25034 5.35907,0.33518 7.63082,0.39933 2.00451,0.0568 6.79949,-0.0647 9.68571,-0.0108 2.55013,0.0472 6.4809,0.31723 9.1262,0.52847 2.30724,0.18435 4.50481,-0.35162 6.76473,-0.25059 z"
         inkscape:connector-curvature="0" />
      <path
         id="path1018"
         style="clip-rule:evenodd;fill:#200a00;fill-opacity:1;fill-rule:evenodd;stroke:#000000;stroke-width:0.49824733;stroke-linecap:round;stroke-linejoin:round;stroke-miterlimit:1.5;stroke-dasharray:none;stroke-opacity:1"
         d="m 199.96497,157.07831 c -0.46028,-0.96999 -0.82563,-1.89215 -1.04147,-2.69514 -0.11057,-0.41096 -0.46785,-0.71269 -0.80306,-0.73555 -0.77228,-0.0528 -2.12331,-0.0481 -2.5607,-0.0832 0.20681,-0.43034 0.52028,-1.157 1.00441,-1.5316 0.52053,-0.40279 1.39955,-0.62301 2.119,-0.88508 0.78213,-0.28493 2.16165,-1.08914 2.57372,-0.82441 0.97087,0.62383 0.80974,2.48002 1.9454,4.504 0.17409,0.31013 0.37593,0.61938 0.60651,0.92442 -1.51606,0.0943 -2.8219,0.50135 -3.84381,1.32657 z"
         inkscape:connector-curvature="0" />
      <g
         transform="matrix(0.08142137,0,0,0.08078478,61.860482,33.042971)"
         id="g1032"
         style="clip-rule:evenodd;fill-rule:evenodd;stroke-linecap:round;stroke-linejoin:round;stroke-miterlimit:1.5">
        <path
           id="path1020"
           style="fill:none;stroke:#000000;stroke-width:8.32999992px"
           d="m 1882.68,1574.71 -67.426,73.343"
           inkscape:connector-curvature="0" />
        <path
           id="path1022"
           style="fill:none;stroke:#000000;stroke-width:8.32999992px"
           d="m 2000.83,1573.93 -67.426,73.343"
           inkscape:connector-curvature="0" />
        <path
           id="path1024"
           style="fill:none;stroke:#000000;stroke-width:8.32999992px"
           d="m 2063.6,1573.93 -67.426,73.343"
           inkscape:connector-curvature="0" />
        <path
           id="path1026"
           style="fill:none;stroke:#000000;stroke-width:8.32999992px"
           d="m 2122.71,1571.69 -67.426,75.583"
           inkscape:connector-curvature="0" />
        <path
           id="path1028"
           style="fill:none;stroke:#000000;stroke-width:8.32999992px"
           d="m 1944.09,1574.71 -67.426,73.343"
           inkscape:connector-curvature="0" />
        <path
           id="path1030"
           style="fill:none;stroke:#000000;stroke-width:8.32999992px"
           d="m 2186.24,1568.34 -67.426,78.943"
           inkscape:connector-curvature="0" />
      </g>
      <g
         transform="matrix(0.08142137,0,0,0.08078478,61.860482,33.042971)"
         style="clip-rule:evenodd;fill-rule:evenodd;stroke:#000000;stroke-width:6.14343119;stroke-linecap:round;stroke-linejoin:round;stroke-miterlimit:1.5;stroke-dasharray:none;stroke-opacity:1"
         id="g1050">
        <circle
           id="circle1034"
           style="fill:#4b89a4;stroke:#000000;stroke-width:6.14343119;stroke-miterlimit:1.5;stroke-dasharray:none;stroke-opacity:1"
           r="25.473"
           cy="1574.12"
           cx="1851.5" />
        <circle
           id="circle1036"
           style="fill:#4b89a4;stroke:#000000;stroke-width:6.14343119;stroke-miterlimit:1.5;stroke-dasharray:none;stroke-opacity:1"
           r="25.473"
           cy="1574.12"
           cx="1851.5" />
        <circle
           id="circle1038"
           style="fill:#4b89a4;stroke:#000000;stroke-width:6.14343119;stroke-miterlimit:1.5;stroke-dasharray:none;stroke-opacity:1"
           r="25.473"
           cy="1574.12"
           cx="1911.1899" />
        <circle
           id="circle1040"
           style="fill:#4b89a4;stroke:#000000;stroke-width:6.14343119;stroke-miterlimit:1.5;stroke-dasharray:none;stroke-opacity:1"
           r="25.473"
           cy="1574.12"
           cx="1970.88" />
        <circle
           id="circle1042"
           style="fill:#4b89a4;stroke:#000000;stroke-width:6.14343119;stroke-miterlimit:1.5;stroke-dasharray:none;stroke-opacity:1"
           r="25.473"
           cy="1574.12"
           cx="2030.5601" />
        <circle
           id="circle1044"
           style="fill:#4b89a4;stroke:#000000;stroke-width:6.14343119;stroke-miterlimit:1.5;stroke-dasharray:none;stroke-opacity:1"
           r="25.473"
           cy="1574.12"
           cx="2090.25" />
        <circle
           id="circle1046"
           style="fill:#4b89a4;stroke:#000000;stroke-width:6.14343119;stroke-miterlimit:1.5;stroke-dasharray:none;stroke-opacity:1"
           r="25.473"
           cy="1574.12"
           cx="2149.9299" />
        <circle
           id="circle1048"
           style="fill:#4b89a4;stroke:#000000;stroke-width:6.14343119;stroke-miterlimit:1.5;stroke-dasharray:none;stroke-opacity:1"
           r="25.473"
           cy="1574.12"
           cx="2209.6201" />
      </g>
    </g>
  </g>
</svg>
