<?xml version="1.0" encoding="UTF-8" standalone="no"?>
<!DOCTYPE svg PUBLIC "-//W3C//DTD SVG 1.1//EN" "http://www.w3.org/Graphics/SVG/1.1/DTD/svg11.dtd">
<svg width="100%" height="100%" viewBox="0 0 2552 1701" version="1.1" xmlns="http://www.w3.org/2000/svg" xmlns:xlink="http://www.w3.org/1999/xlink" xml:space="preserve" xmlns:serif="http://www.serif.com/" style="fill-rule:evenodd;clip-rule:evenodd;stroke-linejoin:round;stroke-miterlimit:2;">
    <g transform="matrix(2,0,0,2,0,0)">
        <g id="Layer1">
            <path d="M514.277,148.557C486.158,188.76 452.162,290.211 452.274,359.901C452.351,407.193 459.027,463.778 480.642,510.196C495.628,542.378 517.737,569.714 549.339,586.456C554.704,589.298 561.367,587.25 564.209,581.885C567.051,576.52 565.003,569.857 559.638,567.015C525.324,548.837 504.397,515.866 491.731,478.772C478.539,440.134 474.334,396.949 474.274,359.866C474.168,294.368 505.878,198.95 532.305,161.166C535.785,156.191 534.571,149.327 529.596,145.848C524.621,142.368 517.757,143.582 514.277,148.557Z" style="fill:white;"/>
            <path d="M720.314,545.282C686.073,485.567 649.954,406.825 649.045,330.299C648.142,254.121 670.245,173.301 710.098,114.016C713.485,108.977 712.144,102.137 707.106,98.75C702.067,95.363 695.227,96.704 691.84,101.742C649.668,164.477 626.091,249.948 627.047,330.56C628,410.822 665.317,493.595 701.229,556.225C704.249,561.492 710.976,563.316 716.243,560.296C721.51,557.276 723.334,550.549 720.314,545.282Z" style="fill:white;"/>
            <path d="M579.736,127.996C550.853,135.861 454.679,162.348 432.848,168.105C430.331,168.769 428.13,170.304 426.639,172.437C398.545,212.603 355.23,318.19 355.342,387.818C355.419,435.144 362.584,491.445 384.606,537.637C399.847,569.607 422.152,596.773 453.723,613.499C456.964,615.215 460.847,615.204 464.077,613.469C488.25,600.487 550.202,588.551 585.669,581.784C585.669,581.784 586.302,631.382 586.302,631.382C572.5,632.509 564.809,638.084 558.832,643.688C556.497,645.878 554.516,648.123 552.46,650.017C551.407,650.987 550.452,652.006 548.798,651.978C546.927,651.947 545.625,650.847 544.269,649.732C542.246,648.067 540.316,646.084 538.218,644.118C530.784,637.148 521.857,630.499 506.475,630.499C491.308,630.499 482.053,636.983 474.351,643.751C472.127,645.705 470.079,647.671 467.974,649.312C466.566,650.411 465.26,651.529 463.439,651.529C461.642,651.529 460.384,650.413 459.001,649.329C456.868,647.657 454.772,645.657 452.453,643.667C444.697,637.009 435.083,630.499 418.61,630.499C402.294,630.499 391.713,639.004 382.455,647.779C379.811,650.286 377.305,652.777 374.666,654.774C372.531,656.389 370.382,657.781 367.56,657.467C349.359,655.44 308.342,637.525 279.679,597.386C270.391,584.38 270.423,571.568 271.864,558.125C273.673,541.252 277.549,523.478 274.907,503.593C271.472,477.744 249.139,448.659 229.691,439.078C228.338,438.411 227.861,436.792 227.078,435.384C225.735,432.967 224.497,430.425 223.105,428.138C219.081,421.529 213.774,416.836 205.912,415.879C202.996,415.524 200.06,416.35 197.757,418.173C195.453,419.995 193.975,422.663 193.65,425.582C193.2,429.627 192.811,438.572 186.061,442.913C182.153,445.427 179.594,449.556 178.639,454.908C178.195,457.391 177.966,462.07 177.882,464.184C169.767,471.571 158.677,475.747 151.164,478.882C149.439,479.601 146.859,478.955 144.452,478.833C140.81,478.648 137.329,478.597 134.676,479.042C130.478,479.746 127.381,481.597 125.311,483.929C123.331,486.159 121.997,488.965 121.84,492.644C121.04,511.339 137.853,530.924 137.853,530.924C140.759,534.175 145.293,535.388 149.406,534.069C148.087,537.644 148.841,541.064 150.858,544.234C152.097,546.181 154.436,548.408 157.874,549.774C162.082,551.446 168.389,551.684 171.711,550.611C174.599,549.678 178.278,547.47 182.398,544.647C186.181,542.054 190.647,538.74 195.692,537.155C200.389,535.679 206.472,533.734 211.91,533.321C213.042,533.235 214.727,533.401 215.543,533.495C216.579,536.311 216.393,539.807 216.12,544.276C215.456,555.115 213.061,569.965 212.151,591.147C210.29,634.453 212.277,648.997 244.14,687.516C252.521,697.648 262.633,706.826 272.688,714.712C241.815,709.964 204.824,705.242 182.499,705.758C137.58,706.798 120.863,714.844 94.034,725.222C67.591,735.451 48.532,753.037 15.931,759.4C10.662,760.428 6.905,765.109 7.041,770.475C7.178,775.842 11.168,780.326 16.482,781.085C32.382,783.357 48.053,780.729 65.224,776.517C88.068,770.914 113.922,762.429 148.118,762.429C182.319,762.429 219.71,773.588 249.707,782.701C271.411,789.294 289.58,794.789 300.7,795.407C342.817,797.747 380.81,785.161 421.97,780.016C452.256,776.231 483.635,774.102 514.151,775.708C547.676,777.473 580.655,784.309 613.611,789.802C633.332,793.089 653.713,789.988 674.091,786.641C692.089,783.686 710.081,780.496 727.527,783.25C771.215,790.148 812.653,795.131 857.067,796.048C918.326,797.314 998.464,800.201 1065.2,796.029C1129.6,792.004 1185.13,781.268 1247.32,802.2C1251.67,803.662 1256.46,802.278 1259.36,798.727C1262.25,795.175 1262.64,790.2 1260.34,786.24C1256.08,778.921 1247.64,771.87 1236.39,765.92C1222.03,758.326 1202.85,752.104 1184.37,747.754C1161.56,742.387 1131.56,745.05 1100.8,747.761C1088.53,748.843 1076.12,749.929 1064.06,750.344C1084.5,739.819 1102.57,727.013 1113.48,713.249C1132.65,689.046 1144.62,651.5 1143.51,631.458C1141.65,597.683 1131.6,579.499 1108.19,555.079C1095.78,542.125 1083.69,544.455 1078.04,549.633C1072.86,554.378 1069.26,565.771 1077.44,580.03C1084.74,592.741 1088.17,604.574 1082.38,618.881C1076.12,634.316 1064.12,645.168 1044.6,654.353C1026.15,663.034 1007.18,668.382 993.602,661.404C986.728,657.871 980.21,650.791 972.195,644.734C961.866,636.928 949.66,630.499 933.65,630.499C916.113,630.499 907.505,637.975 900.506,645.56C898.612,647.612 896.907,649.682 895.024,651.395C893.849,652.465 892.605,653.402 890.685,653.377C889.287,653.36 888.495,652.294 887.535,651.371C885.62,649.528 883.783,647.337 881.708,645.163C874.533,637.647 865.341,630.307 847.798,630.5C830.521,630.689 821.261,637.825 814.052,645C811.936,647.106 810.064,649.216 808.137,650.979C807.182,651.853 806.403,652.873 805.061,652.873C803.934,652.873 803.38,651.939 802.626,651.198C800.789,649.391 799.015,647.233 796.957,645.082C790.013,637.824 780.772,630.499 762.195,630.499C743.546,630.499 734.257,638.111 727.289,645.689C725.23,647.928 723.454,650.174 721.616,652.055C720.894,652.794 720.417,653.77 719.337,653.77C718.192,653.77 717.65,652.755 716.868,651.97C714.997,650.092 713.187,647.85 711.106,645.616C704.033,638.025 694.714,630.464 676.451,630.499C658.816,630.533 649.196,637.24 641.31,644.173L639.636,645.674L639.049,571.951C706.78,560.146 775.595,554.845 833.916,554.865C837.84,554.867 841.469,552.777 843.437,549.381C845.405,545.986 845.414,541.799 843.462,538.394C809.15,478.553 781.306,374.55 780.396,297.863C779.849,251.787 781.449,197.017 793.951,151.466C801.806,122.844 813.859,97.896 833.145,81.987C837.157,78.677 838.302,73.011 835.892,68.402C833.481,63.794 828.173,61.504 823.167,62.912C769.085,78.123 671.284,104.543 635.331,114.233C635.331,114.233 635.09,84.493 635.09,84.493C635.063,81.096 633.467,77.902 630.767,75.84C628.066,73.778 624.565,73.079 621.28,73.947L587.489,82.879C582.612,84.168 579.236,88.609 579.3,93.653L579.736,127.996ZM1102.99,582.342C1114.74,597.031 1120.34,610.815 1121.54,632.669C1122.45,649.126 1111.98,679.714 1096.23,699.588C1080.09,719.965 1045.65,737.187 1013.95,747.267C1009.24,748.763 1006.11,753.211 1006.29,758.145C1006.47,763.08 1009.91,767.291 1014.71,768.445C1040.55,774.655 1072.02,772.383 1102.73,769.676C1128.23,767.429 1153.15,764.809 1173.14,767.966C1137.71,767.245 1102.28,771.669 1063.83,774.072C997.677,778.207 918.243,775.308 857.522,774.053C814.127,773.157 773.643,768.259 730.958,761.519C711.236,758.405 690.871,761.591 670.526,764.932C652.561,767.882 634.614,770.999 617.227,768.101C583.46,762.473 549.657,755.547 515.307,753.739C483.506,752.065 450.803,754.241 419.241,758.186C379.406,763.166 342.682,775.705 301.92,773.441C291.91,772.885 275.641,767.587 256.102,761.651C224.235,751.97 184.451,740.429 148.118,740.429C132.367,740.429 118.264,742.068 105.357,744.419C128.042,735.541 143.766,728.66 183.008,727.752C225.346,726.773 322.157,745.454 322.157,745.454C327.572,746.494 332.92,743.363 334.665,738.132C336.41,732.902 334.012,727.187 329.058,724.767C329.058,724.767 286.323,703.995 261.092,673.493C234.184,640.964 232.559,628.664 234.131,592.091C235.033,571.09 237.421,556.367 238.079,545.621C238.66,536.12 237.811,529.015 235.104,523.297C232.612,518.032 228.513,514.559 223.254,512.752C223.62,512.364 223.954,511.973 224.256,511.581C228.176,506.492 229.269,498.492 227.347,490.994C225.506,483.808 221,477.656 216.861,475.166C213.934,473.405 209.815,472.377 204.933,472.613C202.833,472.714 200.508,473.061 198.116,473.562C199.008,471.53 199.612,469.142 199.844,466.477C200,464.687 200.172,461.491 200.257,459.788C204.283,456.655 207.253,452.763 209.447,448.701C212.224,453.008 215.589,456.655 219.969,458.813C234.301,465.873 250.567,487.441 253.098,506.49C255.488,524.471 251.626,540.522 249.989,555.78C247.985,574.468 248.863,592.089 261.775,610.171C295.259,657.059 343.863,676.964 365.125,679.332C376.252,680.571 384.835,675.517 393.078,667.991C396.378,664.977 399.668,661.558 403.397,658.559C407.456,655.294 412.134,652.499 418.61,652.499C430.564,652.499 436.292,658.735 441.546,663.373C448.285,669.321 454.809,673.529 463.439,673.529C472.07,673.529 478.739,669.298 485.434,663.349C490.564,658.79 495.833,652.499 506.475,652.499C516.898,652.499 521.652,658.752 526.459,663.299C532.899,669.39 539.446,673.825 548.43,673.975C556.58,674.112 562.179,670.976 567.366,666.198C573.058,660.954 577.813,651.796 596.502,653.402C599.596,653.668 602.658,652.614 604.933,650.499C607.208,648.385 608.483,645.408 608.443,642.302L607.499,568.364C607.458,565.102 605.97,562.027 603.439,559.969C600.908,557.912 597.594,557.083 594.392,557.709C564.136,563.618 491.645,576.939 459.235,591.379C427.684,572.752 407.793,541.332 395.424,506.157C381.925,467.766 377.402,424.832 377.342,387.782C377.239,324.032 415.982,228.328 442.443,188.318C471.878,180.444 569.465,153.558 589.934,148.019C591.737,147.531 593.326,147.112 593.326,147.112L593.318,147.113C595.333,146.651 597.194,145.623 598.671,144.127C600.737,142.034 601.88,139.2 601.842,136.259L601.407,101.955C601.407,101.955 613.206,98.837 613.206,98.837C613.206,98.837 613.447,128.644 613.447,128.644C613.475,132.05 615.078,135.251 617.789,137.312C620.5,139.373 624.013,140.062 627.302,139.178C627.302,139.178 724.105,113.157 794.513,93.721C785.129,108.785 778.006,126.439 772.735,145.643C759.712,193.093 757.828,250.127 758.397,298.124C759.27,371.639 783.928,469.164 815.683,533.025C757.622,534.045 691.078,540.009 625.992,551.937C620.737,552.9 616.933,557.501 616.976,562.844L617.782,664.123C617.806,667.129 619.059,669.995 621.25,672.053C623.442,674.111 626.38,675.183 629.382,675.019C639.04,674.491 645.65,669.876 652.3,663.882C657.798,658.925 663.494,652.524 676.493,652.499C691.71,652.47 695.986,662.181 701.282,667.497C706.366,672.6 711.891,675.77 719.337,675.77C726.851,675.77 732.327,672.572 737.351,667.432C742.525,662.137 746.683,652.499 762.195,652.499C777.77,652.499 782.003,661.772 787.2,666.883C792.189,671.791 797.599,674.873 805.061,674.873C812.303,674.873 817.83,671.928 822.984,667.213C828.6,662.078 833.261,652.661 848.04,652.498C862.555,652.339 866.804,661.954 872.283,667.225C877.392,672.141 882.967,675.282 890.408,675.376C900.934,675.508 907.416,670.591 913.602,663.862C917.995,659.084 922.116,652.499 933.65,652.499C946.641,652.499 955.652,659.418 963.521,665.941C970.637,671.84 977.046,677.631 983.546,680.971C1002.2,690.559 1028.61,686.187 1053.96,674.26C1079.52,662.237 1094.58,647.349 1102.76,627.144C1109.37,610.836 1108.59,596.607 1102.99,582.342ZM205.141,494.934C201.925,495.609 194.912,497.148 191.427,498.422C182.666,501.623 167.718,509.736 160.751,514.401C156.529,517.228 157.053,523.439 157.053,523.439C157.061,524.026 157.023,524.606 156.939,525.174C162.922,520.153 172.215,513.457 179.25,509.364C184.37,506.385 191.65,503.981 198.302,501.63C200.859,500.726 204.36,499.114 206.086,498.298L205.141,494.934Z" style="fill:white;"/>
        </g>
    </g>
</svg>
